Coordinates
version=1
nRows=11
nColumns=63
inDegrees=yes

Units are S.I. units (second, meters, Newtons, ...)
If the header above contains a line with 'inDegrees', this indicates whether rotational values are in degrees (yes) or radians (no).

endheader
time	pelvis_tilt	pelvis_list	pelvis_rotation	pelvis_tx	pelvis_ty	pelvis_tz	hip_flexion_r	hip_adduction_r	hip_rotation_r	knee_angle_r	knee_angle_r_beta	ankle_angle_r	subtalar_angle_r	mtp_angle_r	hip_flexion_l	hip_adduction_l	hip_rotation_l	knee_angle_l	knee_angle_l_beta	ankle_angle_l	subtalar_angle_l	mtp_angle_l	L5_S1_Flex_Ext	L5_S1_Lat_Bending	L5_S1_axial_rotation	L4_L5_Flex_Ext	L4_L5_Lat_Bending	L4_L5_axial_rotation	L3_L4_Flex_Ext	L3_L4_Lat_Bending	L3_L4_axial_rotation	L2_L3_Flex_Ext	L2_L3_Lat_Bending	L2_L3_axial_rotation	L1_L2_Flex_Ext	L1_L2_Lat_Bending	L1_L2_axial_rotation	L1_T12_Flex_Ext	L1_T12_Lat_Bending	L1_T12_axial_rotation	Abs_r3	Abs_r2	Abs_r1	Abs_t1	Abs_t2	neck_flexion	neck_bending	neck_rotation	arm_flex_r	arm_add_r	arm_rot_r	elbow_flex_r	pro_sup_r	wrist_flex_r	wrist_dev_r	arm_flex_l	arm_add_l	arm_rot_l	elbow_flex_l	pro_sup_l	wrist_flex_l	wrist_dev_l
     10.73333333	      7.25455587	     -1.59049656	    176.55409748	      2.44643481	      0.88391529	      0.58726520	     16.37212715	     -4.10884215	    -14.83013943	     25.18981122	      0.43964514	     26.17499181	      5.50791827	      0.00000000	     10.92612811	      0.72145854	    -17.10998165	     15.59942927	      0.27226140	     21.70411672	      1.45979142	      0.00000000	      0.00259497	     -0.09205496	     -0.24840567	      0.00481912	     -0.12243309	     -0.26393102	      0.00426328	     -0.22382242	     -0.26393102	      0.00296579	     -0.22382242	     -0.21735496	      0.00240969	     -0.18771847	     -0.20182961	      0.00148277	     -0.14259313	     -0.18630425	      0.01853563	     -1.04134409	     -1.38155782	      0.00000000	      0.00000000	     -0.00000000	      0.00000000	      0.00000000	     -6.66201062	     -7.37406096	      6.76357918	     25.49957364	     59.00387322	      0.00000000	      5.00000014	     -8.45256667	    -10.14975029	     31.06160631	     21.51662632	     55.20799344	      0.00000000	      5.00000014
     10.76666667	      7.24728802	     -1.10080006	    176.36864443	      2.44557299	      0.88415887	      0.58710271	     16.17817111	     -3.45663833	    -14.22210894	     24.84220336	      0.43357824	     25.67748136	      4.80644703	      0.00000000	     10.49075480	      1.00099206	    -12.19027025	     14.53851725	      0.25374499	     20.32657833	     -5.86987405	      0.00000000	      0.00403092	     -0.09332637	     -0.44273211	      0.00748582	     -0.12412408	     -0.47040287	      0.00662239	     -0.22691374	     -0.47040287	      0.00460693	     -0.22691374	     -0.38739060	      0.00374311	     -0.19031114	     -0.35971984	      0.00230327	     -0.14456255	     -0.33204908	      0.02879243	     -1.05572660	     -2.46234318	      0.00000000	      0.00000000	     -0.00000000	      0.00000000	      0.00000000	     -5.18367643	     -8.46765916	     13.86609528	     24.14252998	     60.75838841	      0.00000000	      5.00000014	    -10.16784981	     -9.21051034	     23.53681488	     22.39592250	     53.10267079	      0.00000000	      5.00000014
     10.80000000	      7.08774039	     -0.59637301	    176.17126157	      2.44443033	      0.88480745	      0.58636045	     15.75118872	     -2.80952069	    -13.79868609	     24.39777472	      0.42582150	     25.13381412	      4.56828271	      0.00000000	      9.77097717	      1.20730494	     -7.05829274	     13.36521684	      0.23326704	     18.19593920	    -13.95483485	      0.00000000	      0.00345676	     -0.10048782	     -0.64486329	      0.00641955	     -0.13364880	     -0.68516725	      0.00567911	     -0.24432609	     -0.68516725	      0.00395073	     -0.24432609	     -0.56425538	      0.00320995	     -0.20491476	     -0.52395142	      0.00197519	     -0.15565563	     -0.48364747	      0.02469130	     -1.13673833	     -3.58653617	      0.00000000	      0.00000000	     -0.00000000	      0.00000000	      0.00000000	     -3.48468932	     -9.50676640	     22.23103063	     22.80851995	     62.60410674	      0.00000000	      5.00000014	    -11.60598211	     -8.50301689	     18.08075554	     23.08275961	     52.11724721	      0.00000000	      5.00000014
     10.83333333	      6.88117362	     -0.17772730	    175.80421475	      2.44331000	      0.88555359	      0.58481417	     15.26343083	     -2.10925972	    -13.07180851	     23.86243745	      0.41647810	     24.60473823	      4.11846347	      0.00000000	      9.24518967	      0.92554236	     -5.93919236	     12.87607374	      0.22472988	     17.55523237	    -16.77380847	      0.00000000	      0.00376588	     -0.11504037	     -0.80503295	      0.00699361	     -0.15300369	     -0.85534751	      0.00618696	     -0.27970914	     -0.85534751	      0.00430402	     -0.27970914	     -0.70440384	      0.00349699	     -0.23459031	     -0.65408928	      0.00215182	     -0.17819753	     -0.60377472	      0.02689927	     -1.30135962	     -4.47735178	      0.00000000	      0.00000000	     -0.00000000	      0.00000000	      0.00000000	     -1.81744792	    -10.07987905	     30.14829724	     21.53293080	     63.74870772	      0.00000000	      5.00000014	    -12.92490542	     -7.80785658	     12.84308461	     23.65542369	     51.80094429	      0.00000000	      5.00000014
     10.86666667	      6.69005438	      0.01555691	    175.57390825	      2.44242489	      0.88615401	      0.58355915	     14.95230965	     -1.81913318	    -12.97980390	     23.71908417	      0.41397611	     24.09736054	      4.25824463	      0.00000000	      8.94326491	      0.70930130	     -6.34025396	     12.74164517	      0.22238366	     17.75495660	    -17.25593335	      0.00000000	      0.00253879	     -0.13633246	     -0.91677130	      0.00471479	     -0.18132217	     -0.97406951	      0.00417098	     -0.33147874	     -0.97406951	      0.00290159	     -0.33147874	     -0.80217489	      0.00235752	     -0.27800915	     -0.74487668	      0.00145067	     -0.21117898	     -0.68757848	      0.01813435	     -1.54222005	     -5.09880696	      0.00000000	      0.00000000	     -0.00000000	      0.00000000	      0.00000000	     -1.52555969	     -9.68480407	     30.18088245	     21.41377826	     63.73533149	      0.00000000	      5.00000014	    -13.44261484	     -7.89099191	     12.80742275	     23.61501495	     51.81003217	      0.00000000	      5.00000014
     10.90000000	      6.46054416	      0.06508840	    175.14924892	      2.44137094	      0.88696764	      0.58198940	     14.26759825	     -1.23104091	    -11.54743566	     22.72286989	      0.39658890	     23.25330676	      2.65926744	      0.00000000	      8.28735348	      0.65929963	     -6.73907656	     11.97207017	      0.20895204	     17.25183132	    -17.80208554	      0.00000000	      0.00481002	     -0.16065876	     -0.93206824	      0.00893269	     -0.21367615	     -0.99032251	      0.00790239	     -0.39062570	     -0.99032251	      0.00549738	     -0.39062570	     -0.81555971	      0.00446659	     -0.32761533	     -0.75730545	      0.00274845	     -0.24886041	     -0.69905118	      0.03435752	     -1.81740398	     -5.18388393	      0.00000000	      0.00000000	     -0.00000000	      0.00000000	      0.00000000	     -1.33243482	     -8.84806589	     29.33274790	     20.33535884	     61.36554130	      0.00000000	      5.00000014	    -14.17410260	     -7.67637785	     10.27963762	     24.11409069	     52.06459875	      0.00000000	      5.00000014
     10.93333333	      6.28292902	     -0.04862647	    175.10083206	      2.44090702	      0.88745120	      0.58157251	     13.84735992	     -1.17176536	    -11.32494448	     22.25567733	      0.38843485	     22.74008370	      2.30470475	      0.00000000	      8.00614382	      0.78219006	     -7.07891891	     11.73311207	      0.20478144	     17.00254040	    -17.87614318	      0.00000000	      0.00410814	     -0.18270487	     -0.94204676	      0.00762923	     -0.24299747	     -1.00092468	      0.00674927	     -0.44422861	     -1.00092468	      0.00469520	     -0.44422861	     -0.82429091	      0.00381482	     -0.37257176	     -0.76541299	      0.00234739	     -0.28300984	     -0.70653507	      0.02934406	     -2.06679399	     -5.23938144	      0.00000000	      0.00000000	     -0.00000000	      0.00000000	      0.00000000	     -1.48519961	     -8.34689142	     28.20312822	     20.14881785	     59.99950726	      0.00000000	      5.00000014	    -14.25522599	     -7.69167969	     10.00312578	     23.96198304	     51.91718566	      0.00000000	      5.00000014
     10.96666667	      6.18316081	     -0.20858156	    175.28732757	      2.44081042	      0.88781134	      0.58172659	     13.53180213	     -1.16461963	    -11.05384297	     21.79913958	      0.38046676	     22.15728625	      1.50600047	      0.00000000	      7.95810743	      0.95342865	     -7.00572179	     11.75988597	      0.20524873	     16.79713332	    -17.86981478	      0.00000000	      0.00382286	     -0.19604706	     -0.92520702	      0.00709943	     -0.26074260	     -0.98303245	      0.00628057	     -0.47666883	     -0.98303245	      0.00436914	     -0.47666883	     -0.80955614	      0.00354991	     -0.39977917	     -0.75173070	      0.00218438	     -0.30367690	     -0.69390526	      0.02730629	     -2.21772361	     -5.14572386	      0.00000000	      0.00000000	     -0.00000000	      0.00000000	      0.00000000	     -2.66217027	     -7.01287995	     19.47996935	     20.75135361	     55.64201256	      0.00000000	      5.00000014	    -13.92606938	     -7.98798585	     11.29550464	     23.64505355	     53.13542537	      0.00000000	      5.00000014
     11.00000000	      6.14265002	     -0.38255688	    175.48842631	      2.44113860	      0.88795184	      0.58236967	     13.48340447	     -1.33281122	    -11.21883811	     21.74548131	      0.37953025	     22.00074025	      1.19916686	      0.00000000	      8.22613152	      1.04665300	     -7.56433690	     12.31537685	      0.21494387	     17.24705666	    -16.92867686	      0.00000000	      0.00240861	     -0.20832156	     -0.92308540	      0.00447302	     -0.27706768	     -0.98077824	      0.00395710	     -0.50651304	     -0.98077824	      0.00275280	     -0.50651304	     -0.80769973	      0.00223663	     -0.42480933	     -0.75000689	      0.00137628	     -0.32269010	     -0.69231405	      0.01720444	     -2.35657517	     -5.13392408	      0.00000000	      0.00000000	     -0.00000000	      0.00000000	      0.00000000	     -2.87328439	     -6.98601234	     19.29151968	     21.10849588	     55.26968858	      0.00000000	      5.00000014	    -13.78717230	     -8.05438599	     11.24256983	     23.74766410	     52.91456459	      0.00000000	      5.00000014
     11.03333333	      6.15456544	     -0.49066522	    175.46688219	      2.44158827	      0.88840518	      0.58323816	     13.46776895	     -1.46061829	    -11.21913277	     21.54546787	      0.37603935	     21.74449667	      1.34133764	      0.00000000	      8.22580478	      1.18692636	     -7.08343529	     12.23874831	      0.21360645	     16.61934792	    -17.10004097	      0.00000000	      0.00166955	     -0.20800504	     -0.87900870	      0.00310052	     -0.27664670	     -0.93394675	      0.00274291	     -0.50574345	     -0.93394675	      0.00190813	     -0.50574345	     -0.76913262	      0.00155035	     -0.42416387	     -0.71419457	      0.00095398	     -0.32219980	     -0.65925653	      0.01192544	     -2.35299459	     -4.88878271	      0.00000000	      0.00000000	     -0.00000000	      0.00000000	      0.00000000	     -2.94891996	     -6.80672567	     18.36915030	     20.96418010	     54.81848496	      0.00000000	      5.00000014	    -13.24793197	     -7.84020386	     11.41085185	     22.89312212	     52.94631180	      0.00000000	      5.00000014
     11.06666667	      6.21298227	     -0.64813821	    175.83906201	      2.44196611	      0.88855550	      0.58454162	     13.60908785	     -1.91750252	    -12.21908049	     21.71196935	      0.37894535	     21.99737832	      2.33809112	      0.00000000	      8.34860382	      1.39007280	     -6.20044563	     12.36782762	      0.21585931	     16.38222472	    -17.00335218	      0.00000000	      0.00247571	     -0.20769252	     -0.89525142	      0.00459764	     -0.27623105	     -0.95120464	      0.00406734	     -0.50498359	     -0.95120464	      0.00282949	     -0.50498359	     -0.78334499	      0.00229894	     -0.42352658	     -0.72739178	      0.00141462	     -0.32171571	     -0.67143857	      0.01768375	     -2.34945931	     -4.97911984	      0.00000000	      0.00000000	     -0.00000000	      0.00000000	      0.00000000	     -4.25513220	     -5.23112491	      7.70197009	     22.35520544	     50.80677912	      0.00000000	      5.00000014	    -12.63558235	     -8.28645872	     14.52189983	     22.42739505	     54.26131212	      0.00000000	      5.00000014
